<svg width="336" height="338" viewBox="0 0 336 338" fill="none" xmlns="http://www.w3.org/2000/svg">
<g filter="url(#filter0_d_24_98)">
<path d="M4 32C4 15.4314 17.4315 2 34 2H302C318.569 2 332 15.4315 332 32V300C332 316.569 318.569 330 302 330H34C17.4314 330 4 316.569 4 300V32Z" fill="#EFEFEF"/>
<path d="M34 3H302C318.016 3 331 15.9837 331 32V300C331 316.016 318.016 329 302 329H34C17.9837 329 5 316.016 5 300V32C5 15.9837 17.9837 3 34 3Z" stroke="#50AEDD" stroke-width="2"/>
</g>
<path d="M6 203H331" stroke="#50AEDD" stroke-width="6"/>
<line x1="5" y1="133" x2="331" y2="133" stroke="#50AEDD" stroke-width="6"/>
<line x1="248" y1="134" x2="248" y2="67" stroke="#50AEDD" stroke-width="6"/>
<line x1="248" y1="270" x2="248" y2="203" stroke="#50AEDD" stroke-width="6"/>
<path d="M86 203L86 136" stroke="#50AEDD" stroke-width="6"/>
<path d="M86 330L86 270" stroke="#50AEDD" stroke-width="6"/>
<line x1="5" y1="64" x2="332" y2="64" stroke="#50AEDD" stroke-width="6"/>
<line x1="5" y1="31" x2="332" y2="31" stroke="#50AEDD" stroke-width="6"/>
<line x1="5" y1="267" x2="332" y2="267" stroke="#50AEDD" stroke-width="6"/>
<path fill-rule="evenodd" clip-rule="evenodd" d="M34 0C17.4315 0 4 13.4315 4 30V67H332V30C332 13.4315 318.569 0 302 0H34Z" fill="#50AEDD"/>
<defs>
<filter id="filter0_d_24_98" x="0" y="2" width="336" height="336" filterUnits="userSpaceOnUse" color-interpolation-filters="sRGB">
<feFlood flood-opacity="0" result="BackgroundImageFix"/>
<feColorMatrix in="SourceAlpha" type="matrix" values="0 0 0 0 0 0 0 0 0 0 0 0 0 0 0 0 0 0 127 0" result="hardAlpha"/>
<feOffset dy="4"/>
<feGaussianBlur stdDeviation="2"/>
<feComposite in2="hardAlpha" operator="out"/>
<feColorMatrix type="matrix" values="0 0 0 0 0 0 0 0 0 0 0 0 0 0 0 0 0 0 0.25 0"/>
<feBlend mode="normal" in2="BackgroundImageFix" result="effect1_dropShadow_24_98"/>
<feBlend mode="normal" in="SourceGraphic" in2="effect1_dropShadow_24_98" result="shape"/>
</filter>
</defs>
</svg>
